# 3ds Max Wavefront OBJ Exporter v0.97b - (c)2007 guruware
# File Created: 19.12.2022 21:23:47

mtllib Table.mtl

#
# object Table
#

v  -10.3181 -9.6036 0.0000
v  10.0926 -9.6036 0.0000
v  -10.3181 9.2728 0.0000
v  10.0926 9.2728 0.0000
v  -10.3181 -9.6036 1.8560
v  10.0926 -9.6036 1.8560
v  -10.3181 9.2728 1.8560
v  10.0926 9.2728 1.8560
v  -3.1725 -2.4580 2.8168
v  2.9470 -2.4580 2.8168
v  2.9470 2.1272 2.8168
v  -3.1725 2.1272 2.8168
v  -3.1725 -2.4580 31.5927
v  2.9470 -2.4580 31.5927
v  2.9470 2.1272 31.5927
v  -3.1725 2.1272 31.5927
v  22.8709 0.1644 31.4973
v  21.4881 8.0062 31.4973
v  17.5067 14.9023 31.4973
v  11.4068 20.0207 31.4973
v  3.9242 22.7442 31.4973
v  -4.0387 22.7442 31.4973
v  -11.5213 20.0207 31.4973
v  -17.6212 14.9023 31.4973
v  -21.6027 8.0062 31.4973
v  -22.9854 0.1644 31.4973
v  -21.6027 -7.6775 31.4973
v  -17.6212 -14.5735 31.4973
v  -11.5213 -19.6920 31.4973
v  -4.0387 -22.4154 31.4973
v  3.9241 -22.4154 31.4973
v  11.4068 -19.6920 31.4973
v  17.5067 -14.5736 31.4973
v  21.4881 -7.6775 31.4973
v  22.8709 0.1644 33.5060
v  21.4881 8.0062 33.5060
v  17.5067 14.9023 33.5060
v  11.4068 20.0207 33.5060
v  3.9242 22.7442 33.5060
v  -4.0387 22.7442 33.5060
v  -11.5213 20.0207 33.5060
v  -17.6212 14.9023 33.5060
v  -21.6027 8.0062 33.5060
v  -22.9854 0.1644 33.5060
v  -21.6027 -7.6775 33.5060
v  -17.6212 -14.5735 33.5060
v  -11.5213 -19.6920 33.5060
v  -4.0387 -22.4154 33.5060
v  3.9241 -22.4154 33.5060
v  11.4068 -19.6920 33.5060
v  17.5067 -14.5736 33.5060
v  21.4881 -7.6775 33.5060
# 52 vertices

vn -0.5774 -0.5774 -0.5774
vn -0.5774 0.5774 -0.5774
vn 0.5774 0.5774 -0.5774
vn 0.5774 -0.5774 -0.5774
vn -0.5774 -0.5774 0.5774
vn 0.5774 -0.5774 0.5774
vn 0.5774 0.5774 0.5774
vn -0.5774 0.5774 0.5774
vn -0.5774 -0.5774 -0.5774
vn 0.5774 -0.5774 -0.5774
vn 0.6044 -0.6044 0.5190
vn -0.6044 -0.6044 0.5190
vn 0.5774 -0.5774 -0.5774
vn 0.5774 0.5774 -0.5774
vn 0.6044 0.6044 0.5190
vn 0.6044 -0.6044 0.5190
vn 0.5774 0.5774 -0.5774
vn -0.5774 0.5774 -0.5774
vn -0.6044 0.6044 0.5190
vn 0.6044 0.6044 0.5190
vn -0.5774 0.5774 -0.5774
vn -0.5774 -0.5774 -0.5774
vn -0.6044 -0.6044 0.5190
vn -0.6044 0.6044 0.5190
vn -0.6044 -0.6044 0.5190
vn 0.6044 -0.6044 0.5190
vn 0.4080 -0.4080 0.8168
vn -0.4080 -0.4080 0.8168
vn 0.6044 -0.6044 0.5190
vn 0.6044 0.6044 0.5190
vn 0.4080 0.4080 0.8168
vn 0.4080 -0.4080 0.8168
vn 0.6044 0.6044 0.5190
vn -0.6044 0.6044 0.5190
vn -0.4080 0.4080 0.8168
vn 0.4080 0.4080 0.8168
vn -0.6044 0.6044 0.5190
vn -0.6044 -0.6044 0.5190
vn -0.4080 -0.4080 0.8168
vn -0.4080 0.4080 0.8168
vn -0.4080 -0.4080 0.8168
vn 0.4080 -0.4080 0.8168
vn 0.5774 -0.5774 0.5774
vn -0.5774 -0.5774 0.5774
vn 0.4080 -0.4080 0.8168
vn 0.4080 0.4080 0.8168
vn 0.5774 0.5774 0.5774
vn 0.5774 -0.5774 0.5774
vn 0.4080 0.4080 0.8168
vn -0.4080 0.4080 0.8168
vn -0.5774 0.5774 0.5774
vn 0.5774 0.5774 0.5774
vn -0.4080 0.4080 0.8168
vn -0.4080 -0.4080 0.8168
vn -0.5774 -0.5774 0.5774
vn -0.5774 0.5774 0.5774
vn 0.6976 -0.2539 -0.6700
vn 0.5687 -0.4772 -0.6700
vn 0.3712 -0.6428 -0.6701
vn 0.1289 -0.7310 -0.6701
vn -0.1289 -0.7311 -0.6700
vn -0.3712 -0.6429 -0.6700
vn -0.5687 -0.4772 -0.6700
vn -0.6976 -0.2539 -0.6700
vn -0.7423 0.0000 -0.6700
vn -0.6976 0.2539 -0.6700
vn -0.5687 0.4772 -0.6700
vn -0.3712 0.6429 -0.6700
vn -0.1289 0.7311 -0.6700
vn 0.1289 0.7311 -0.6700
vn 0.3712 0.6429 -0.6700
vn 0.5686 0.4772 -0.6701
vn 0.6975 0.2539 -0.6701
vn 0.7423 -0.0000 -0.6700
vn 0.7423 -0.0000 -0.6700
vn 0.6975 0.2539 -0.6701
vn 0.6975 0.2539 0.6701
vn 0.7423 -0.0000 0.6700
vn 0.6975 0.2539 -0.6701
vn 0.5686 0.4772 -0.6701
vn 0.5686 0.4772 0.6701
vn 0.6975 0.2539 0.6701
vn 0.5686 0.4772 -0.6701
vn 0.3712 0.6429 -0.6700
vn 0.3712 0.6429 0.6700
vn 0.5686 0.4772 0.6701
vn 0.3712 0.6429 -0.6700
vn 0.1289 0.7311 -0.6700
vn 0.1289 0.7311 0.6700
vn 0.3712 0.6429 0.6700
vn 0.1289 0.7311 -0.6700
vn -0.1289 0.7311 -0.6700
vn -0.1289 0.7311 0.6700
vn 0.1289 0.7311 0.6700
vn -0.1289 0.7311 -0.6700
vn -0.3712 0.6429 -0.6700
vn -0.3712 0.6429 0.6700
vn -0.1289 0.7311 0.6700
vn -0.3712 0.6429 -0.6700
vn -0.5687 0.4772 -0.6700
vn -0.5687 0.4772 0.6700
vn -0.3712 0.6429 0.6700
vn -0.5687 0.4772 -0.6700
vn -0.6976 0.2539 -0.6700
vn -0.6976 0.2539 0.6700
vn -0.5687 0.4772 0.6700
vn -0.6976 0.2539 -0.6700
vn -0.7423 0.0000 -0.6700
vn -0.7423 0.0000 0.6700
vn -0.6976 0.2539 0.6700
vn -0.7423 0.0000 -0.6700
vn -0.6976 -0.2539 -0.6700
vn -0.6976 -0.2539 0.6700
vn -0.7423 0.0000 0.6700
vn -0.6976 -0.2539 -0.6700
vn -0.5687 -0.4772 -0.6700
vn -0.5687 -0.4772 0.6700
vn -0.6976 -0.2539 0.6700
vn -0.5687 -0.4772 -0.6700
vn -0.3712 -0.6429 -0.6700
vn -0.3712 -0.6429 0.6700
vn -0.5687 -0.4772 0.6700
vn -0.3712 -0.6429 -0.6700
vn -0.1289 -0.7311 -0.6700
vn -0.1289 -0.7311 0.6700
vn -0.3712 -0.6429 0.6700
vn -0.1289 -0.7311 -0.6700
vn 0.1289 -0.7310 -0.6701
vn 0.1289 -0.7310 0.6701
vn -0.1289 -0.7311 0.6700
vn 0.1289 -0.7310 -0.6701
vn 0.3712 -0.6428 -0.6701
vn 0.3712 -0.6428 0.6701
vn 0.1289 -0.7310 0.6701
vn 0.3712 -0.6428 -0.6701
vn 0.5687 -0.4772 -0.6700
vn 0.5687 -0.4772 0.6700
vn 0.3712 -0.6428 0.6701
vn 0.5687 -0.4772 -0.6700
vn 0.6976 -0.2539 -0.6700
vn 0.6976 -0.2539 0.6700
vn 0.5687 -0.4772 0.6700
vn 0.6976 -0.2539 -0.6700
vn 0.7423 -0.0000 -0.6700
vn 0.7423 -0.0000 0.6700
vn 0.6976 -0.2539 0.6700
vn 0.6976 -0.2539 0.6700
vn 0.7423 -0.0000 0.6700
vn 0.6975 0.2539 0.6701
vn 0.5686 0.4772 0.6701
vn 0.3712 0.6429 0.6700
vn 0.1289 0.7311 0.6700
vn -0.1289 0.7311 0.6700
vn -0.3712 0.6429 0.6700
vn -0.5687 0.4772 0.6700
vn -0.6976 0.2539 0.6700
vn -0.7423 0.0000 0.6700
vn -0.6976 -0.2539 0.6700
vn -0.5687 -0.4772 0.6700
vn -0.3712 -0.6429 0.6700
vn -0.1289 -0.7311 0.6700
vn 0.1289 -0.7310 0.6701
vn 0.3712 -0.6428 0.6701
vn 0.5687 -0.4772 0.6700
# 164 vertex normals

vt 1.0000 0.0000 0.0000
vt 1.0000 18.8764 0.0000
vt -19.4107 18.8764 0.0000
vt -19.4107 0.0000 0.0000
vt 0.0000 0.0000 0.0000
vt 20.4107 0.0000 0.0000
vt 20.4107 18.8764 0.0000
vt 0.0000 18.8764 0.0000
vt 20.4107 4.1013 0.0000
vt 0.0000 4.1013 0.0000
vt 18.8764 0.0000 0.0000
vt 18.8764 4.1013 0.0000
vt 44.4735 30.4217 0.0000
vt 40.4921 37.3177 0.0000
vt 34.3922 42.4361 0.0000
vt 26.9095 45.1596 0.0000
vt 18.9467 45.1596 0.0000
vt 11.4641 42.4361 0.0000
vt 5.3642 37.3177 0.0000
vt 1.3827 30.4217 0.0000
vt 0.0000 22.5798 0.0000
vt 1.3827 14.7379 0.0000
vt 5.3642 7.8419 0.0000
vt 11.4641 2.7235 0.0000
vt 18.9467 0.0000 0.0000
vt 26.9096 0.0000 0.0000
vt 34.3922 2.7235 0.0000
vt 40.4921 7.8419 0.0000
vt 44.4735 14.7379 0.0000
vt 45.8563 22.5798 0.0000
vt 108.0462 0.0000 1.0000
vt 116.0497 0.0000 1.0000
vt 116.0497 5.3412 1.0000
vt 108.0462 5.3412 1.0000
vt 124.0531 0.0000 1.0000
vt 124.0531 5.3412 1.0000
vt 132.0565 0.0000 1.0000
vt 132.0565 5.3412 1.0000
vt 140.0600 0.0000 1.0000
vt 140.0600 5.3412 1.0000
vt -4.0017 0.0000 1.0000
vt 4.0017 0.0000 1.0000
vt 4.0017 5.3412 1.0000
vt -4.0017 5.3412 1.0000
vt 12.0051 0.0000 1.0000
vt 12.0051 5.3412 1.0000
vt 20.0086 0.0000 1.0000
vt 20.0086 5.3412 1.0000
vt 28.0120 0.0000 1.0000
vt 28.0120 5.3412 1.0000
vt 36.0154 0.0000 1.0000
vt 36.0154 5.3412 1.0000
vt 44.0188 0.0000 1.0000
vt 44.0188 5.3412 1.0000
vt 52.0223 0.0000 1.0000
vt 52.0223 5.3412 1.0000
vt 60.0257 0.0000 1.0000
vt 60.0257 5.3412 1.0000
vt 68.0291 0.0000 1.0000
vt 68.0291 5.3412 1.0000
vt 76.0325 0.0000 1.0000
vt 76.0325 5.3412 1.0000
vt 84.0360 0.0000 1.0000
vt 84.0360 5.3412 1.0000
vt 92.0394 0.0000 1.0000
vt 92.0394 5.3412 1.0000
vt 100.0428 0.0000 1.0000
vt 100.0428 5.3412 1.0000
vt 26.9096 45.1596 0.0000
vt 26.9095 0.0000 0.0000
# 70 texture coords

o Table
g Table
usemtl wire_088144225
s 2
f 1/1/1 3/2/2 4/3/3 2/4/4 
s 4
f 13/5/5 14/6/6 15/7/7 16/8/8 
s 8
f 1/5/9 2/6/10 6/9/11 5/10/12 
s 16
f 2/5/13 4/11/14 8/12/15 6/10/16 
s 32
f 4/5/17 3/6/18 7/9/19 8/10/20 
s 64
f 3/5/21 1/11/22 5/12/23 7/10/24 
s off
f 5/5/25 6/6/26 10/6/27 9/5/28 
f 6/6/29 8/7/30 11/7/31 10/6/32 
f 8/7/33 7/8/34 12/8/35 11/7/36 
f 7/8/37 5/5/38 9/5/39 12/8/40 
f 9/5/41 10/6/42 14/6/43 13/5/44 
f 10/6/45 11/7/46 15/7/47 14/6/48 
f 11/7/49 12/8/50 16/8/51 15/7/52 
f 12/8/53 9/5/54 13/5/55 16/8/56 
s 1
f 34/13/57 33/14/58 32/15/59 31/16/60 30/17/61 29/18/62 28/19/63 27/20/64 26/21/65 25/22/66 24/23/67 23/24/68 22/25/69 21/26/70 20/27/71 19/28/72 18/29/73 17/30/74 
s 8
f 17/31/75 18/32/76 36/33/77 35/34/78 
f 18/32/79 19/35/80 37/36/81 36/33/82 
f 19/35/83 20/37/84 38/38/85 37/36/86 
f 20/37/87 21/39/88 39/40/89 38/38/90 
f 21/41/91 22/42/92 40/43/93 39/44/94 
f 22/42/95 23/45/96 41/46/97 40/43/98 
f 23/45/99 24/47/100 42/48/101 41/46/102 
f 24/47/103 25/49/104 43/50/105 42/48/106 
f 25/49/107 26/51/108 44/52/109 43/50/110 
f 26/51/111 27/53/112 45/54/113 44/52/114 
f 27/53/115 28/55/116 46/56/117 45/54/118 
f 28/55/119 29/57/120 47/58/121 46/56/122 
f 29/57/123 30/59/124 48/60/125 47/58/126 
f 30/59/127 31/61/128 49/62/129 48/60/130 
f 31/61/131 32/63/132 50/64/133 49/62/134 
f 32/63/135 33/65/136 51/66/137 50/64/138 
f 33/65/139 34/67/140 52/68/141 51/66/142 
f 34/67/143 17/31/144 35/34/145 52/68/146 
s 1
f 52/29/147 35/30/148 36/13/149 37/14/150 38/15/151 39/69/152 40/17/153 41/18/154 42/19/155 43/20/156 44/21/157 45/22/158 46/23/159 47/24/160 48/25/161 49/70/162 50/27/163 51/28/164 
# 34 polygons

